<svg version="1.1" id="Layer_1" xmlns="http://www.w3.org/2000/svg" x="0" y="0" viewBox="0 0 41.8 48" xml:space="preserve"><style>.st0{fill:#fff}</style><g transform="translate(-645.5 -2696.296)"><path class="st0" d="M650.6 2700c-1.3-.7-3-.3-3.7 1-.7 1.3-.3 2.9 1 3.7l5.9 3.6H665l-14.4-8.3zM685.6 2704.7c1.3-.8 1.7-2.4 1-3.7-.8-1.3-2.4-1.7-3.7-1l-14.4 8.3h11.2l5.9-3.6zM649.9 2733.8c-.8 1.3-.3 3 1 3.7 1.3.8 3 .3 3.7-1l6-6.9.5-9.5-11.2 13.7zM678.2 2736.5c.7 1.3 2.4 1.8 3.7 1 1.3-.7 1.8-2.4 1-3.7l-11.2-13.7.5 9.5 6 6.9z"/><path class="st0" d="M667.6 2709.8l-17-9.8c-1.3-.8-3-.3-3.7 1-.8 1.3-.3 3 1 3.7l9.7 5.9c1.3.8 1.8 2.4 1 3.7"/><path class="st0" d="M665.9 2709.8l17-9.8c1.3-.7 3-.3 3.7 1 .7 1.3.3 2.9-1 3.7l-9.7 5.9c-1.3.8-1.8 2.4-1 3.7"/><path class="st0" d="M18 0L.4 21.5c-.7 1.3-.3 3 1 3.7 1.3.7 2.9.3 3.7-1l10.4-12c.4-.7 1.2-.9 1.9-.5" transform="translate(649.502 2712.274)"/><path class="st0" d="M15.8 0l17.6 21.5c.8 1.3.3 3-1 3.7-1.3.8-3 .3-3.7-1l-10.4-12c-.4-.7-1.2-.9-1.9-.5" transform="translate(649.502 2712.274)"/><circle class="st0" cx="666.4" cy="2701.7" r="5.4"/><path class="st0" d="M666.4 2725.5c.7.1 1.2.7 1.1 1.4l.5 14.5c-.2 1.4.7 2.6 2.1 2.8 1.4.2 2.7-.7 2.9-2.1l-1.4-25.3c0-1.4 1.2-2.5 2.5-2.5l10.6-.2c1.4 0 2.5-1.1 2.5-2.4 0-1.4-1.1-2.5-2.4-2.5H648c-1.4 0-2.5 1.1-2.5 2.4s1.1 2.5 2.4 2.5h.1l10.6.2c1.4 0 2.5 1.1 2.5 2.5l-1.4 25.3c.2 1.4 1.5 2.3 2.9 2.1 1.4-.2 2.3-1.5 2.1-2.8l.5-14.5c-.1-.7.4-1.3 1-1.4h.2z"/></g></svg>