<svg version="1.1" id="Layer_1" xmlns="http://www.w3.org/2000/svg" x="0" y="0" viewBox="0 0 51 51" xml:space="preserve"><style>.st1,.st2{fill:#fff}.st2{stroke:#fff;stroke-width:3;stroke-linejoin:round}</style><path d="M25.5 1.5c13.3 0 24 10.7 24 24s-10.7 24-24 24-24-10.7-24-24 10.7-24 24-24z" fill="none" stroke="#fff" stroke-width="3" stroke-linecap="round"/><path class="st1" d="M1034.6 1925c.1.2 0 .5-.1.7-.2.3-.5.4-.8.5-.3.1-.6.1-.9-.1-.2-.1-.4-.3-.5-.5l-.7-2.2h-4.4l-.8 2.3c-.1.2-.3.4-.5.5-.3.1-.6.2-.9.1-.3-.1-.6-.2-.8-.5-.1-.2-.2-.4-.1-.7l4-10.7c.1-.2.2-.4.5-.6.3-.2.6-.3.9-.2.3 0 .6.1.9.2.2.1.4.3.5.6l3.7 10.6zm-6.8-3.5h3.2l-1.6-4.8-1.6 4.8zM1035.6 1914.6c0-.2.1-.5.3-.6.3-.2.6-.3.9-.3h2.6c.8 0 1.6.1 2.4.4.6.2 1.2.6 1.7 1.1.4.5.8 1 1 1.7.2.7.3 1.3.3 2v2.1c0 .7-.1 1.3-.3 1.9-.2.6-.5 1.1-1 1.6s-1 .8-1.7 1.1c-.8.3-1.6.4-2.4.4h-2.6c-.3 0-.6-.1-.9-.3-.2-.1-.3-.4-.3-.6v-10.5zm2.4 1.2v8.3h1.5c.8 0 1.6-.2 2.2-.7.6-.5.8-1.3.8-2v-2.5c.1-1.5-1-2.8-2.5-3h-.5l-1.5-.1z" transform="translate(-1008.5 -1894)"/><path class="st2" d="M1025.4 1928.6l-7.3 7.3M1049.9 1902.8l-7.3 7.3" transform="translate(-1008.5 -1894)"/></svg>