<svg version="1.1" id="Layer_1" xmlns="http://www.w3.org/2000/svg" x="0" y="0" viewBox="0 0 48.6 48.4" xml:space="preserve"><style>.st0{fill:#fff}</style><path class="st0" d="M619.3 2835.5l.2-3c0-.2-.1-.4-.3-.6l-2.7-1.9c1.5-.8 2-2.7 1.2-4.2s-2.7-2-4.2-1.2-2 2.7-1.2 4.2c.3.5.7.9 1.2 1.2l-2.7 1.9c-.2.1-.3.3-.3.5l.2 3 8.6.1zM633.7 2814.8l.2-3c0-.2-.1-.4-.3-.6l-2.7-1.9c1.5-.8 2-2.7 1.2-4.2s-2.7-2-4.2-1.2-2 2.7-1.2 4.2c.3.5.7.9 1.2 1.2l-2.7 1.9c-.2.1-.3.3-.3.6l.2 3h8.6zM648.1 2827.1l.2-3c0-.2-.1-.4-.3-.6l-2.7-1.9c1.5-.8 2-2.7 1.2-4.2s-2.7-2-4.2-1.2-2 2.7-1.2 4.2c.3.5.7.9 1.2 1.2l-2.7 1.9c-.2.1-.3.3-.3.6l.2 3h8.6z" transform="translate(-605 -2803.642)"/><path class="st0" d="M652 2848.8h-3.6V2831h-8.9v17.8H634v-30h-8.9v30h-5.5v-9.3h-8.9v9.3h-4c-.9 0-1.6.7-1.6 1.6s.7 1.6 1.6 1.6H652c.9 0 1.6-.7 1.6-1.6s-.7-1.6-1.6-1.6z" transform="translate(-605 -2803.642)"/></svg>