<svg version="1.1" id="Layer_1" xmlns="http://www.w3.org/2000/svg" x="0" y="0" viewBox="0 0 33.1 51" xml:space="preserve"><style>.st0{fill:#fff}</style><g transform="translate(1.623 3.045)"><path class="st0" d="M0 0h27v2H0z" transform="translate(0 3.299)"/><path class="st0" d="M0 0h27.2v2H0z" transform="translate(3.214 38.948)"/><circle class="st0" cx="14.9" cy="43.4" r="1"/><path class="st0" d="M0 0h5v2H0z" transform="translate(12.412)"/></g><path class="st0" d="M30.5 0h-28C1.1 0 0 1.1 0 2.5v45.9C0 49.9 1.1 51 2.5 51h28c1.4 0 2.5-1.1 2.5-2.5v-46c.1-1.4-1-2.5-2.5-2.5zm.6 10.4v38.1c0 .3-.2.5-.5.5h-28c-.3 0-.6-.3-.6-.5v-46c0-.2.3-.5.5-.5h28c.3 0 .5.2.5.5v7.9h.1z"/><path class="st0" d="M0 0h13v2H0z" transform="translate(15.139 15.719)"/><path class="st0" d="M3.4 8L0 4.7l1.4-1.5L3.3 5l4.4-5 1.5 1.3L3.4 8z" transform="translate(4.137 20.935)"/><path class="st0" d="M0 0h13v2H0z" transform="translate(15.139 24.6)"/><path class="st0" d="M0 0h13v2H0z" transform="translate(15.139 33.48)"/><g><path class="st0" d="M3.8 7.6C1.7 7.6 0 5.9 0 3.8S1.7 0 3.8 0s3.8 1.7 3.8 3.8c0 2.1-1.7 3.8-3.8 3.8zm0-5.6C2.8 2 2 2.8 2 3.8s.8 1.8 1.8 1.8 1.8-.8 1.8-1.8C5.5 2.8 4.8 2 3.8 2z" transform="translate(4.921 30.711)"/></g><g><path class="st0" d="M3.8 7.6C1.7 7.6 0 5.9 0 3.8S1.7 0 3.8 0s3.8 1.7 3.8 3.8c0 2.1-1.7 3.8-3.8 3.8zm0-5.6C2.8 2 2 2.8 2 3.8s.8 1.8 1.8 1.8 1.8-.8 1.8-1.8C5.5 2.8 4.8 2 3.8 2z" transform="translate(4.921 12.711)"/></g></svg>