<svg xmlns="http://www.w3.org/2000/svg" width="48" height="50.74" viewBox="0 0 48 50.74"><defs><style>.a{fill:#fff;}</style></defs><g transform="translate(-11.585 -9.4)"><path class="a" d="M20.088,80.593H13.206a.68.68,0,0,1-.706-.706V67.006a.68.68,0,0,1,.706-.706h6.882a.68.68,0,0,1,.706.706V79.828A.77.77,0,0,1,20.088,80.593Z" transform="translate(-0.377 -20.453)"/><path class="a" d="M41.188,77.175H34.306a.68.68,0,0,1-.706-.706V58.706A.68.68,0,0,1,34.306,58h6.882a.68.68,0,0,1,.706.706v17.7A.729.729,0,0,1,41.188,77.175Z" transform="translate(-8.077 -17.035)"/><path class="a" d="M61.247,73.345H54.306a.68.68,0,0,1-.706-.706V49.406a.68.68,0,0,1,.706-.706h6.882a.68.68,0,0,1,.706.706V72.639A.706.706,0,0,1,61.247,73.345Z" transform="translate(-15.414 -13.205)"/><path class="a" d="M81.888,69.433H75.006a.68.68,0,0,1-.706-.706V39.906a.68.68,0,0,1,.706-.706h6.882a.68.68,0,0,1,.706.706V68.727A.715.715,0,0,1,81.888,69.433Z" transform="translate(-23.009 -9.293)"/><path class="a" d="M57,10.223v9.882a.872.872,0,0,1-1.442.588L52.92,18.164a.558.558,0,0,0-.815,0c-12.981,12.529-31.543,14.646-39.633,15a.6.6,0,0,1-.627-.471l-.251-1a.615.615,0,0,1,.564-.706c.69-.059,1.317-.118,2.007-.235,1.317-.176,2.571-.353,3.825-.588,1.505-.294,3.01-.588,4.452-1a42.566,42.566,0,0,0,4.891-1.529,48.913,48.913,0,0,0,5.142-2.117,43.888,43.888,0,0,0,5.2-2.823A42.667,42.667,0,0,0,42.7,19.046a47.252,47.252,0,0,0,4.7-4.529c.251-.294.564-.588.376-1a1.992,1.992,0,0,0-.564-.647l-.627-.588L45.4,11.165l-.439-.412A.788.788,0,0,1,45.583,9.4H56.056A.852.852,0,0,1,57,10.223Z"/></g></svg>