<svg version="1.1" id="Layer_1" xmlns="http://www.w3.org/2000/svg" x="0" y="0" viewBox="0 0 48 46.5" xml:space="preserve"><style>.st0{fill:#fff}</style><path class="st0" d="M24 2C10.8 2 0 10.7 0 21.5c0 6.8 4.2 12.9 10.5 16.6V47c0 .8.7 1.5 1.5 1.5.3 0 .7-.1 1-.3l8.1-6.6c1 .1 2 .2 3 .2 13 0 24-9.3 24-20.2C48 10.7 37.2 2 24 2zm.5 36.7H24c-1.3 0-2.6-.1-3.9-.3l-6.6 5.4v-7.5c-1-.5-2-1.1-3-1.8-4.6-3.1-7.5-7.8-7.5-13C3 12.4 12.4 5 24 5s21 7.4 21 16.5c0 9.2-9.4 17-20.5 17.2z" transform="translate(0 -2)"/><path class="st0" d="M7.7 22c-1.1 0-2 .9-2 2s.9 2 2 2 2-.9 2-2c0-.5-.2-1-.6-1.4-.4-.4-.9-.6-1.4-.6zM13.4 1.8C12.7 1.2 11.9.7 11 .5 10 .1 9.1 0 8.1 0c-2-.1-3.9.6-5.5 1.8C1.3 2.9.4 4.5 0 6.1c0 .3 0 .5.1.7.2.1.4.2.5.2l2.2.2c.2 0 .4 0 .6-.1.3-.1.4-.3.4-.6.2-.8.6-1.6 1.2-2.2.8-.8 1.9-1.2 3-1.2.5 0 1.1.1 1.5.3.5.2.9.5 1.2.8.4.4.6.8.8 1.2.2.5.3 1 .3 1.6 0 .5-.1 1.1-.3 1.5-.2.5-.5.9-.8 1.3-.3.4-.7.8-1.1 1.2-.4.4-.8.8-1.2 1.1l-1.2 1.2c-.3.3-.6.7-.8 1-.2.4-.4.8-.4 1.2-.1.6-.2 1.1-.1 1.7v1.5c0 .4.4.8.8.8h2c.4 0 .8-.4.8-.8V18c0-.4 0-.9.1-1.3 0-.3.1-.6.3-.9.1-.3.3-.6.6-.8.2-.3.6-.6 1-1l.4-.3 2.2-2.3c.5-.6.9-1.3 1.2-2 .3-.8.4-1.6.4-2.5 0-1-.2-2-.6-2.9-.5-.9-1.1-1.6-1.7-2.2z" transform="translate(16.246 7.277)"/></svg>