<svg xmlns="http://www.w3.org/2000/svg" width="48" height="46.5" viewBox="0 0 48 46.5"><defs><style>.a{fill:#00a99d;}</style></defs><g transform="translate(0 -2)"><path d="M24,2C10.766,2,0,10.748,0,21.5c0,6.792,4.21,12.929,10.5,16.623V47a1.5,1.5,0,0,0,2.45,1.161L21,41.578a27.3,27.3,0,0,0,3,.172c13.009,0,24-9.273,24-20.25C48,10.748,37.234,2,24,2Zm.464,36.741c-.155,0-.309.009-.464.009a24.391,24.391,0,0,1-3.9-.316l-6.6,5.4V36.352a22.088,22.088,0,0,1-3-1.764C5.945,31.4,3,26.672,3,21.5,3,12.4,12.421,5,24,5s21,7.4,21,16.5C45,30.723,35.643,38.528,24.464,38.741Z"/><g transform="translate(16.246 9.277)"><path class="a" d="M61.038,76.589a1.987,1.987,0,1,0,1.391.581A1.9,1.9,0,0,0,61.038,76.589Z" transform="translate(-53.38 -54.543)"/><path class="a" d="M58.856,25.8a7.017,7.017,0,0,0-2.363-1.339A8.943,8.943,0,0,0,53.572,24a8.3,8.3,0,0,0-5.488,1.84,7.6,7.6,0,0,0-2.552,4.3.86.86,0,0,0,.091.655.762.762,0,0,0,.529.2l2.2.217A1.092,1.092,0,0,0,49,31.121a1.006,1.006,0,0,0,.313-.579,4.741,4.741,0,0,1,1.225-2.265A3.967,3.967,0,0,1,53.5,27.124a4.041,4.041,0,0,1,1.544.3,3.777,3.777,0,0,1,1.246.819,4.026,4.026,0,0,1,.838,1.247,3.936,3.936,0,0,1,.316,1.581,3.679,3.679,0,0,1-.316,1.544,6.507,6.507,0,0,1-.8,1.3,12.14,12.14,0,0,1-1.079,1.191q-.6.577-1.19,1.134-.746.707-1.248,1.21a4.7,4.7,0,0,0-.8,1.043,4.475,4.475,0,0,0-.446,1.21,7.882,7.882,0,0,0-.149,1.674v1.481h0a.79.79,0,0,0,.789.787H54.2a.79.79,0,0,0,.787-.787h0v-.847a9.268,9.268,0,0,1,.077-1.3,3.151,3.151,0,0,1,.279-.948,3.375,3.375,0,0,1,.558-.818q.354-.393.95-.95l.371-.335,2.231-2.307a7.447,7.447,0,0,0,1.154-1.99,6.872,6.872,0,0,0,.408-2.475,7.045,7.045,0,0,0-.576-2.921A6.15,6.15,0,0,0,58.856,25.8Z" transform="translate(-45.505 -24)"/></g></g></svg>