<svg xmlns="http://www.w3.org/2000/svg" width="51" height="51" viewBox="0 0 51 51"><defs><style>.a,.c{fill:none;stroke:#343433;stroke-width:3px;}.a{stroke-linecap:round;}.b{fill:#00a99d;}.c{stroke-linejoin:round;}</style></defs><g transform="translate(-1008.5 -1894)"><path class="a" d="M24,0A24,24,0,1,1,0,24,24,24,0,0,1,24,0Z" transform="translate(1010 1895.5)"/><path class="b" d="M139.567,193.892a.8.8,0,0,1-.121.684,1.2,1.2,0,0,1-.771.494,1.311,1.311,0,0,1-.9-.078.873.873,0,0,1-.494-.52l-.727-2.243h-4.425l-.753,2.26a.951.951,0,0,1-.52.52,1.277,1.277,0,0,1-.883.078,1.207,1.207,0,0,1-.779-.494.78.78,0,0,1-.13-.684l3.984-10.7a1.1,1.1,0,0,1,.459-.572,1.478,1.478,0,0,1,.866-.242,1.506,1.506,0,0,1,.857.242,1.082,1.082,0,0,1,.468.572Zm-6.833-3.551h3.17l-1.567-4.789Z" transform="translate(895.045 1731.128)"/><path class="b" d="M276.9,185.7a.781.781,0,0,1,.329-.624,1.3,1.3,0,0,1,.892-.277h2.624a6.32,6.32,0,0,1,2.4.416,4.758,4.758,0,0,1,1.68,1.117A4.454,4.454,0,0,1,285.8,188a6.543,6.543,0,0,1,.312,2.035v2.139a5.968,5.968,0,0,1-.312,1.948,4.17,4.17,0,0,1-.979,1.585,4.584,4.584,0,0,1-1.68,1.065,6.7,6.7,0,0,1-2.4.39h-2.624a1.34,1.34,0,0,1-.892-.277.819.819,0,0,1-.329-.624Zm2.381,1.143v8.262h1.464a3.227,3.227,0,0,0,2.191-.693,2.537,2.537,0,0,0,.788-2.026V189.84a2.734,2.734,0,0,0-2.979-2.988h-1.464Z" transform="translate(758.74 1728.932)"/><line class="c" x1="7.305" y2="7.305" transform="translate(1018.141 1928.562)"/><line class="c" x1="7.305" y2="7.305" transform="translate(1042.554 1902.794)"/></g></svg>