<svg version="1.1" id="Layer_1" xmlns="http://www.w3.org/2000/svg" x="0" y="0" viewBox="0 0 48 50.7" xml:space="preserve"><style>.st0{fill:#010101}</style><path class="st0" d="M19.7 60.1h-6.9c-.4 0-.7-.3-.7-.7V46.6c0-.4.3-.7.7-.7h7c.4 0 .7.3.7.7v12.9c-.1.3-.4.6-.8.6zM33.1 60.1h-6.9c-.4 0-.7-.3-.7-.7V41.7c0-.4.3-.7.7-.7h7c.4 0 .7.3.7.7v17.8c-.1.3-.4.6-.8.6zM45.8 60.1h-6.9c-.4 0-.7-.3-.7-.7V36.2c0-.4.3-.7.7-.7h7c.4 0 .7.3.7.7v23.3c-.1.3-.4.6-.8.6zM58.9 60.1H52c-.4 0-.7-.3-.7-.7V30.6c0-.4.3-.7.7-.7h7c.4 0 .7.3.7.7V59.5c-.1.3-.4.6-.8.6z" transform="translate(-11.585 -9.4)"/><path d="M57 10.2v9.9c0 .5-.5.8-.9.8-.2 0-.4-.1-.5-.2L53 18.2c-.2-.2-.6-.2-.8 0-13 12.5-31.5 14.6-39.6 15-.3 0-.6-.2-.6-.5l-.3-1c-.1-.3.2-.6.5-.7.7-.1 1.3-.1 2-.2 1.3-.2 2.6-.4 3.8-.6 1.5-.3 3-.6 4.5-1 1.7-.4 3.3-.9 4.9-1.5 1.8-.6 3.5-1.3 5.1-2.1 1.8-.8 3.5-1.8 5.2-2.8 1.8-1.1 3.4-2.3 5-3.6 1.7-1.4 3.2-2.9 4.7-4.5.3-.3.6-.6.4-1-.1-.3-.3-.5-.6-.6l-.6-.6-1.2-1.1-.4-.6c-.3-.3-.3-.8 0-1.1.2-.2.4-.3.6-.2h10.5c.4-.2.8.2.9.7z" fill="#00a99d" transform="translate(-11.585 -9.4)"/></svg>