<svg xmlns="http://www.w3.org/2000/svg" width="33.086" height="51" viewBox="0 0 33.086 51"><defs><style>.a{fill:#474747;}.b{fill:#00a99d;}</style></defs><g transform="translate(-20.211 -4.457)"><g transform="translate(20.211 4.457)"><g transform="translate(1.623 3.045)"><g transform="translate(0 3.299)"><rect class="a" width="27.032" height="2.03"/></g><g transform="translate(3.214 38.948)"><rect class="a" width="27.234" height="2.03"/></g><circle class="a" cx="1.015" cy="1.015" r="1.015" transform="translate(13.905 42.404)"/><g transform="translate(12.412)"><rect class="a" width="5.015" height="2.03"/></g></g><path class="a" d="M50.76,4.457H22.748a2.54,2.54,0,0,0-2.537,2.537V52.92a2.54,2.54,0,0,0,2.537,2.537H50.76A2.54,2.54,0,0,0,53.3,52.92V6.994A2.54,2.54,0,0,0,50.76,4.457Zm.507,10.386V52.92a.514.514,0,0,1-.507.507H22.748a.514.514,0,0,1-.507-.507V6.994a.514.514,0,0,1,.507-.507H50.76a.514.514,0,0,1,.507.507v7.848Z" transform="translate(-20.211 -4.457)"/></g><g transform="translate(24.348 16.511)"><g transform="translate(11.002 3.665)"><rect class="a" width="12.997" height="2.03"/></g></g><g transform="translate(24.348 25.392)"><g transform="translate(0)"><path class="b" d="M30.981,49.6l-3.433-3.273,1.4-1.469,1.89,1.8,4.378-5.07,1.536,1.327Z" transform="translate(-27.548 -41.585)"/></g><g transform="translate(11.002 3.665)"><rect class="a" width="12.997" height="2.03"/></g></g><g transform="translate(35.35 37.937)"><rect class="a" width="12.997" height="2.03"/></g><g transform="translate(25.132 35.168)"><path class="a" d="M32.723,66.492a3.785,3.785,0,1,1,3.785-3.785A3.789,3.789,0,0,1,32.723,66.492Zm0-5.54a1.755,1.755,0,1,0,1.755,1.755A1.757,1.757,0,0,0,32.723,60.952Z" transform="translate(-28.938 -58.923)"/></g><g transform="translate(25.132 17.168)"><path class="a" d="M32.723,66.492a3.785,3.785,0,1,1,3.785-3.785A3.789,3.789,0,0,1,32.723,66.492Zm0-5.54a1.755,1.755,0,1,0,1.755,1.755A1.757,1.757,0,0,0,32.723,60.952Z" transform="translate(-28.938 -58.923)"/></g></g></svg>