<svg xmlns="http://www.w3.org/2000/svg" width="41.771" height="48" viewBox="0 0 41.771 48"><defs><style>.a{fill:#32323c;}.b{fill:#00a99d;}</style></defs><g transform="translate(-645.5 -2696.296)"><path class="a" d="M193.185,168.694a2.724,2.724,0,0,0-2.724,4.718l5.9,3.571h11.183Z" transform="translate(457.369 2531.314)"/><path class="a" d="M247.59,173.412a2.724,2.724,0,0,0-2.724-4.718l-14.358,8.289h11.183Z" transform="translate(438.013 2531.314)"/><path class="a" d="M194.481,221.568a2.724,2.724,0,1,0,4.718,2.724l5.973-6.887.523-9.537Z" transform="translate(455.387 2512.251)"/><path class="a" d="M242.223,224.289a2.724,2.724,0,1,0,4.718-2.724L235.723,207.86l.505,9.516Z" transform="translate(435.953 2512.254)"/><path class="b" d="M210.21,178.524l-17.026-9.83a2.724,2.724,0,1,0-2.724,4.718l9.728,5.89a2.723,2.723,0,0,1,1,3.721" transform="translate(457.369 2531.314)"/><path class="b" d="M226.1,178.524l17.026-9.83a2.724,2.724,0,0,1,2.724,4.718l-9.728,5.89a2.725,2.725,0,0,0-1,3.721" transform="translate(439.755 2531.314)"/><g transform="translate(649.502 2712.274)"><path class="b" d="M212.117,194.9l-17.636,21.545a2.724,2.724,0,0,0,4.718,2.724l10.432-12.029a1.362,1.362,0,0,1,1.86-.5" transform="translate(-194.115 -194.901)"/><path class="b" d="M225.115,194.9l17.636,21.545a2.724,2.724,0,1,1-4.718,2.724L227.6,207.141a1.361,1.361,0,0,0-1.86-.5" transform="translate(-209.358 -194.901)"/></g><circle class="a" cx="5.448" cy="5.448" r="5.448" transform="translate(660.937 2696.296)"/><path class="a" d="M208.416,200.427a1.245,1.245,0,0,1,1.053,1.421l.468,14.492a2.489,2.489,0,0,0,2.107,2.842,2.535,2.535,0,0,0,2.913-2.055l-1.377-25.335a2.512,2.512,0,0,1,2.542-2.481l10.608-.215a2.481,2.481,0,1,0,0-4.961H190.042a2.481,2.481,0,1,0,0,4.961l10.608.215a2.512,2.512,0,0,1,2.542,2.481l-1.426,25.346a2.535,2.535,0,0,0,2.913,2.056,2.489,2.489,0,0,0,2.107-2.843l.469-14.492a1.244,1.244,0,0,1,1.053-1.421Z" transform="translate(458 2525.071)"/></g></svg>