<svg xmlns="http://www.w3.org/2000/svg" width="48.593" height="48.415" viewBox="0 0 48.593 48.415"><defs><style>.a{fill:#00a99d;}</style></defs><g transform="translate(-605 -2803.642)"><path d="M117.267,239.093l.243-3.035a.61.61,0,0,0-.262-.55l-2.711-1.872a3.053,3.053,0,1,0-2.979,0l-2.709,1.873a.608.608,0,0,0-.262.549l.243,3.043Z" transform="translate(502.071 2596.39)"/><path class="a" d="M231.177,75.668l.243-3.043a.608.608,0,0,0-.262-.55L228.447,70.2a3.053,3.053,0,1,0-2.978,0l-2.71,1.872a.611.611,0,0,0-.262.55l.243,3.043Z" transform="translate(402.565 2739.156)"/><path d="M345.113,172.507l.245-3.043a.608.608,0,0,0-.262-.55l-2.711-1.872a3.051,3.051,0,1,0-2.978,0l-2.71,1.873a.611.611,0,0,0-.26.55l.242,3.043Z" transform="translate(303.034 2654.56)"/><path d="M110.843,214.654h-3.591V196.893H98.326v17.761H92.846v-30H83.921v30H78.442v-9.348H69.516v9.344H65.47a1.61,1.61,0,0,0,0,3.22h45.374a1.61,1.61,0,1,0,0-3.22Z" transform="translate(541.14 2634.188)"/></g></svg>