<svg id="Layer_1" data-name="Layer 1" xmlns="http://www.w3.org/2000/svg" width="37.13mm" height="44.39mm" viewBox="0 0 105.26 125.83">
  <defs>
    <style>
      .cls-1 {
        fill: #32333d;
      }
    </style>
  </defs>
  <title>logo</title>
  <g>
    <path class="cls-1" d="M87.72,33.73a17.54,17.54,0,0,1,1.34,35,7,7,0,0,1-.5-1.06,5.46,5.46,0,0,1,0-3.27,13.18,13.18,0,1,0-13.18-8.53,27.94,27.94,0,0,0-2.12,5.28A17.54,17.54,0,0,1,87.72,33.73Z"/>
    <path class="cls-1" d="M80.36,55.92a8.69,8.69,0,1,1,5.43,3.84c-4.08,7.67-.76,11.45,3.3,16.07,4.82,5.49,10.45,11.89,10.44,24,0,7.15-3.48,13.28-9,17.8a38,38,0,0,1-21.51,8.07q-1.38.09-2.95.09a39.47,39.47,0,0,1-26.34-9.49c-7-6.13-11.52-15-12.21-25.75q-.08-1.31-.09-2.88V70.4a27.11,27.11,0,0,1-8.82-2.77c-7.8-4-14-12-15.15-24L0,9.35a6.35,6.35,0,0,1,1.66-5A6.51,6.51,0,0,1,6.52,2.18h8a5.44,5.44,0,1,1,0,6.53h-8L9.27,36.16c1.45,5.76,5.53,9.78,10.64,12.07A27.57,27.57,0,0,0,31.07,50.5a27.56,27.56,0,0,0,11.15-2.28c5.11-2.28,9.19-6.31,10.64-12.07L55.62,8.72h-8a5.44,5.44,0,1,1,0-6.53h8a6.51,6.51,0,0,1,4.83,2.16,6.51,6.51,0,0,1,1.38,2.34,6.44,6.44,0,0,1,.28,2.68L58.65,43.66c-1.2,12-7.36,20-15.15,24A27.1,27.1,0,0,1,34,70.49V87.71q0,1.15.09,2.47a30.32,30.32,0,0,0,10,21.26,33,33,0,0,0,22,7.88q1.16,0,2.54-.09a31.43,31.43,0,0,0,17.79-6.59c4-3.32,6.59-7.73,6.59-12.77,0-9.69-4.76-15.11-8.84-19.75-6.06-6.9-10.94-12.46-3.83-24.2ZM51.48,47.11A24.88,24.88,0,0,1,44,52.19a32.64,32.64,0,0,1-25.84,0,24.87,24.87,0,0,1-7.5-5.08c1.73,7.22,5.9,12.12,11,14.74a20.82,20.82,0,0,0,18.89,0c5.07-2.61,9.24-7.52,11-14.74ZM6.51,8.69s0,0,0,0,0,0,0,0Zm49.12,0s0,0,0,0,0,0,0,0Z"/>
  </g>
</svg>
